<svg width="123" height="123" viewBox="0 0 123 123" fill="none" xmlns="http://www.w3.org/2000/svg">
<path d="M75.8348 74.0903C67.0463 69.0162 61.7904 61.6664 61.7904 61.6664C61.7904 61.6664 70.7835 62.5432 79.572 67.6172C88.3605 72.6912 93.6164 80.0411 93.6164 80.0411C93.6164 80.0411 84.6233 79.1643 75.8348 74.0903Z" stroke="black" stroke-width="3" stroke-linecap="round" stroke-linejoin="round"/>
<path d="M43.4306 55.3817C34.6421 50.3076 29.3862 42.9578 29.3862 42.9578C29.3862 42.9578 38.3793 43.8346 47.1678 48.9086C55.9563 53.9826 61.2122 61.3325 61.2122 61.3325C61.2122 61.3325 52.2191 60.4557 43.4306 55.3817Z" stroke="black" stroke-width="3" stroke-linecap="round" stroke-linejoin="round"/>
<path d="M48.9106 75.8328C53.9846 67.0443 61.3345 61.7884 61.3345 61.7884C61.3345 61.7884 60.4577 70.7815 55.3836 79.57C50.3096 88.3586 42.9597 93.6144 42.9597 93.6144C42.9597 93.6144 43.8365 84.6213 48.9106 75.8328Z" stroke="black" stroke-width="3" stroke-linecap="round" stroke-linejoin="round"/>
<path d="M67.6192 43.4285C72.6933 34.64 80.0431 29.3841 80.0431 29.3841C80.0431 29.3841 79.1664 38.3772 74.0923 47.1657C69.0183 55.9543 61.6684 61.2101 61.6684 61.2101C61.6684 61.2101 62.5452 52.217 67.6192 43.4285Z" stroke="black" stroke-width="3" stroke-linecap="round" stroke-linejoin="round"/>
<path d="M62.7335 80.5378C60.107 70.7355 61.5877 61.8219 61.5877 61.8219C61.5877 61.8219 67.3268 68.8009 69.9533 78.6032C72.5798 88.4056 71.0992 97.3192 71.0992 97.3192C71.0992 97.3192 65.36 90.3401 62.7335 80.5378Z" stroke="black" stroke-width="3" stroke-linecap="round" stroke-linejoin="round"/>
<path d="M53.0493 44.3955C50.4228 34.5932 51.9035 25.6796 51.9035 25.6796C51.9035 25.6796 57.6426 32.6586 60.2691 42.4609C62.8956 52.2632 61.4149 61.1768 61.4149 61.1768C61.4149 61.1768 55.6758 54.1978 53.0493 44.3955Z" stroke="black" stroke-width="3" stroke-linecap="round" stroke-linejoin="round"/>
<path d="M42.4631 62.7313C52.2654 60.1048 61.179 61.5855 61.179 61.5855C61.179 61.5855 54.1999 67.3246 44.3976 69.9511C34.5953 72.5776 25.6817 71.0969 25.6817 71.0969C25.6817 71.0969 32.6608 65.3578 42.4631 62.7313Z" stroke="black" stroke-width="3" stroke-linecap="round" stroke-linejoin="round"/>
<path d="M78.6054 53.0469C88.4077 50.4204 97.3213 51.9011 97.3213 51.9011C97.3213 51.9011 90.3422 57.6402 80.5399 60.2667C70.7376 62.8932 61.824 61.4126 61.824 61.4126C61.824 61.4126 68.8031 55.6735 78.6054 53.0469Z" stroke="black" stroke-width="3" stroke-linecap="round" stroke-linejoin="round"/>
</svg>
